# xmcd
#
# Track frame offsets: 
#        150
#        8560
#        26760
#        43955
#        64608
#        87793
#        104175
#        119837
#        127762
#        147563
#        166054
#        179798
#        195222
#        204566
#        222839
#        242269
#
# Disc length: 3390 seconds
#
# Revision: 0
# Processed by: cddbd v1.5.2PL0 Copyright (c) Steve Scherf et al.
# Submitted via: ExactAudioCopy v0.99pb4
#
DISCID=e30d3c10
DTITLE=D. Allie - The Cooperative
DYEAR=2008
DGENRE=Rap
TTITLE0=Who's That? (It's Co-Op)
TTITLE1=The Saga Begins
TTITLE2=The Remedy
TTITLE3=Let it Knock (feat PL) - Pop's Guitar pt. 1
TTITLE4=Find You
TTITLE5=Anonymous Posers (feat Asylum 7 and 5 ill)
TTITLE6=Get Up
TTITLE7=Pop's Guitar pt. 2 (Interlude)
TTITLE8=Who Are You?
TTITLE9=Bang
TTITLE10=Description of a Fool 2007
TTITLE11=Change the Name
TTITLE12=Pop's Guitar pt. 3
TTITLE13=Ride Out
TTITLE14=The Dum Out (feat Dante)
TTITLE15=Thank You (Outro)
EXTD=
EXTT0=
EXTT1=
EXTT2=
EXTT3=
EXTT4=
EXTT5=
EXTT6=
EXTT7=
EXTT8=
EXTT9=
EXTT10=
EXTT11=
EXTT12=
EXTT13=
EXTT14=
EXTT15=
PLAYORDER=
